<svg width="304" height="40" viewBox="0 0 304 40" fill="none" xmlns="http://www.w3.org/2000/svg">
<path d="M17.677 35.3017C27.4397 35.3017 35.3539 27.3992 35.3539 17.6509C35.3539 7.90256 27.4397 0 17.677 0C7.91425 0 0 7.90256 0 17.6509C0 27.3992 7.91425 35.3017 17.677 35.3017Z" fill="#FC8001"/>
<path d="M17.7119 0.982544C9.55525 0.982544 2.937 7.58603 2.937 15.7357C2.937 16.5287 3.00194 17.3117 3.12182 18.0698C5.03487 13.0873 10.2495 9.50623 16.3883 9.50623C21.5181 9.50623 26.0035 12 28.456 15.7257C28.471 15.7257 28.486 15.7257 28.5009 15.7257C30.0893 15.7257 31.423 16.2294 32.4169 17.0923C32.4569 16.6434 32.4819 16.1945 32.4819 15.7357C32.4819 7.58603 25.8686 0.982544 17.7119 0.982544Z" fill="#FDCC01"/>
<path d="M32.4169 17.0923C31.423 16.2294 30.0893 15.7257 28.5009 15.7257C28.486 15.7257 28.471 15.7257 28.456 15.7257C24.1104 15.7506 19.5351 19.5212 18.2264 24.1696C17.5271 26.6484 17.8967 28.8728 19.0506 30.419C18.606 30.4589 18.1615 30.4838 17.7069 30.4838C10.3444 30.4838 4.24068 25.1022 3.12182 18.0648C2.61733 19.3766 2.34261 20.788 2.34261 22.2593C2.34261 25.8703 3.99592 29.1222 6.64822 31.4464C8.28655 32.7531 10.1596 33.7756 12.1976 34.4389C13.9208 34.9975 15.7639 35.3067 17.672 35.3067C22.9716 35.3067 27.7217 32.9726 30.9634 29.2868C32.0823 28.015 33.0163 26.5835 33.7356 25.0274C33.8405 24.7481 33.9354 24.4638 34.0153 24.1746C34.8545 21.207 34.1602 18.5985 32.4169 17.0923Z" fill="#FD0024"/>
<path d="M128.394 16.2593V30.798C128.394 30.9476 128.274 31.0673 128.124 31.0673H124.723C124.573 31.0673 124.453 30.9476 124.453 30.798V17.5312C124.453 13.3367 122.145 10.8628 118.184 10.8628C114.413 10.8628 111.461 13.4763 111.461 17.6259V30.798C111.461 30.9476 111.341 31.0673 111.192 31.0673H107.79C107.64 31.0673 107.52 30.9476 107.52 30.798V17.5312C107.52 13.3367 105.213 10.8628 101.252 10.8628C97.5755 10.8628 94.5036 13.3815 94.5036 17.6259V30.798C94.5036 30.9476 94.3838 31.0673 94.2339 31.0673H90.8523C90.7025 31.0673 90.5826 30.9476 90.5826 30.798V7.89027C90.5826 7.74065 90.7025 7.62095 90.8523 7.62095H94.2089C94.3588 7.62095 94.4787 7.74065 94.4787 7.89027V9.84539C94.4787 10.0898 94.7783 10.2045 94.9432 10.0199C96.8163 7.89526 99.5185 7.14214 101.951 7.14214C105.632 7.14214 108.574 8.70823 110.153 11.3217C110.258 11.4963 110.502 11.4963 110.612 11.3217C112.535 8.17955 115.907 7.14214 118.884 7.14214C124.528 7.14713 128.394 10.793 128.394 16.2593Z" fill="white"/>
<path d="M155.986 19.0175C155.986 25.9002 150.966 30.8878 144.578 30.8878C141.271 30.8878 138.754 29.7157 136.99 27.8703C136.825 27.6958 136.536 27.8204 136.536 28.0599V39.7307C136.536 39.8803 136.416 40 136.266 40H132.884C132.735 40 132.615 39.8803 132.615 39.7307V7.89027C132.615 7.74065 132.735 7.62095 132.884 7.62095H136.266C136.416 7.62095 136.536 7.74065 136.536 7.89027V9.97007C136.536 10.2095 136.825 10.3292 136.99 10.1596C138.754 8.31421 141.271 7.14713 144.578 7.14713C150.966 7.14713 155.986 12.1347 155.986 19.0175ZM136.291 19.0175C136.291 23.6958 139.508 27.217 144.118 27.217C148.848 27.217 151.945 23.5461 151.945 19.0175C151.945 14.4838 148.773 10.8379 144.118 10.8379C139.508 10.8379 136.291 14.3641 136.291 19.0175Z" fill="white"/>
<path d="M200.356 12.4389C200.281 12.5736 200.111 12.6135 199.981 12.5337C198.473 11.591 195.715 10.5786 192.868 10.5786C189.747 10.5786 187.729 11.8953 187.729 13.9601C187.729 15.7805 189.387 16.6234 192.149 16.9576L194.791 17.2918C199.641 17.9402 202.498 19.98 202.498 23.7406C202.498 28.0798 198.607 30.8878 192.389 30.8878C189.642 30.8878 185.955 30.2444 182.988 28.1097C182.874 28.0249 182.844 27.8653 182.918 27.7456L184.457 25.2818C184.542 25.1471 184.717 25.1172 184.842 25.212C186.52 26.4539 188.768 27.4613 192.419 27.4613C196.165 27.4613 198.473 26.2394 198.473 23.985C198.473 22.3042 196.984 21.2519 193.887 20.8678L191.245 20.5536C186.13 19.9302 183.658 17.6259 183.658 14.1746C183.658 9.81048 187.284 7.17207 192.833 7.17207C196.325 7.17207 199.522 8.07481 201.729 9.50623C201.849 9.58105 201.884 9.74065 201.814 9.86534L200.356 12.4389Z" fill="white"/>
<path d="M220.38 12.4389C220.305 12.5736 220.136 12.6135 220.006 12.5337C218.497 11.591 215.74 10.5786 212.893 10.5786C209.771 10.5786 207.753 11.8953 207.753 13.9601C207.753 15.7805 209.411 16.6234 212.174 16.9576L214.816 17.2918C219.666 17.9402 222.523 19.98 222.523 23.7406C222.523 28.0798 218.632 30.8878 212.413 30.8878C209.666 30.8878 205.98 30.2444 203.013 28.1097C202.898 28.0249 202.868 27.8653 202.943 27.7456L204.481 25.2818C204.566 25.1471 204.741 25.1172 204.866 25.212C206.544 26.4539 208.792 27.4613 212.443 27.4613C216.19 27.4613 218.497 26.2394 218.497 23.985C218.497 22.3042 217.009 21.2519 213.912 20.8678L211.27 20.5536C206.155 19.9302 203.682 17.6259 203.682 14.1746C203.682 9.81048 207.309 7.17207 212.858 7.17207C216.349 7.17207 219.546 8.07481 221.754 9.50623C221.874 9.58105 221.909 9.74065 221.839 9.86534L220.38 12.4389Z" fill="white"/>
<path d="M59.1497 24.8828C59.0498 24.783 58.8849 24.783 58.7801 24.8828C55.4085 28.0648 50.6434 27.9701 47.4816 24.813C44.2399 21.5761 44.2199 16.7082 47.6015 13.3317C50.9181 10.02 55.6533 9.99002 58.8949 13.0474C58.9998 13.1471 59.1647 13.1471 59.2646 13.0474L61.5023 10.813C61.6072 10.7082 61.6072 10.5287 61.4973 10.4239C56.6123 5.73566 49.4895 5.78055 44.7644 10.4988C39.9742 15.2818 39.9942 22.5237 44.8842 27.4065C49.7043 32.2195 56.837 32.3192 61.6272 27.7456C61.737 27.6409 61.737 27.4663 61.6322 27.3566L59.1497 24.8828Z" fill="white"/>
<path d="M67.4862 19.0075C67.631 19.0075 67.7459 18.8928 67.7509 18.7481C67.8808 14.1197 71.3173 10.818 75.7927 10.818C80.378 10.818 83.8395 14.2494 83.8395 19.0175C83.8395 23.7007 80.5129 27.0623 76.0525 27.192C75.9076 27.197 75.7927 27.3117 75.7927 27.4564V30.6135C75.7927 30.7631 75.9176 30.8878 76.0674 30.8878C82.8455 30.7531 87.8454 25.6908 87.8454 19.0224C87.8454 12.2593 82.7057 7.15212 75.7877 7.15212C68.9697 7.15212 63.8549 12.1147 63.71 18.7332C63.705 18.8828 63.8299 19.0075 63.9847 19.0075H67.4862Z" fill="white"/>
<path d="M180.306 7.62594H176.925C176.775 7.62594 176.655 7.74564 176.655 7.89526V9.93017C174.577 8.07481 171.81 6.96758 168.683 6.96758C161.91 6.96758 156.795 12.0997 156.795 19.0075C156.795 25.8155 161.765 30.9227 168.393 31.0673C168.543 31.0723 168.668 30.9476 168.668 30.793V27.2968C168.668 27.1521 168.553 27.0374 168.408 27.0324C163.773 26.9027 160.466 23.4713 160.466 19.0025C160.466 14.4239 163.903 10.9676 168.678 10.9676C172.754 10.9676 176.65 13.8105 176.65 17.0574V30.793C176.65 30.9426 176.77 31.0623 176.92 31.0623H180.301C180.451 31.0623 180.571 30.9426 180.571 30.793V7.89027C180.571 7.74564 180.451 7.62594 180.306 7.62594Z" fill="white"/>
<path d="M78.3251 21.4663L79.469 17.207C79.7137 16.2943 78.8796 15.4613 77.9655 15.7057L73.6998 16.8479C72.7858 17.0923 72.4811 18.2344 73.1504 18.9027L76.2722 22.0199C76.9366 22.6833 78.0804 22.379 78.3251 21.4663Z" fill="#FDCC01"/>
<path d="M292.437 22.6284C289.665 22.6284 288.386 21.207 288.386 18.4389V1.38653H279.885V14.0499C277.952 9.90524 273.746 7.03741 268.861 7.03741C263.981 7.03741 259.77 9.91023 257.837 14.0499V7.29177H249.441V19.207C249.441 21.3566 248.307 22.813 246.414 22.813C244.521 22.813 243.387 21.3566 243.387 19.207V7.29177H234.885V19.3167C234.885 26.6783 239.411 31.3067 246.419 31.3067C252.043 31.3067 256.059 28.1895 257.378 23.1421C259.021 27.8953 263.541 31.3067 268.866 31.3067C274.12 31.3067 278.591 27.985 280.289 23.3267C281.543 28.7282 285.639 31.1222 291.128 31.1222H293.281V22.6334H292.437V22.6284ZM268.861 22.813C266.853 22.813 265.21 21.1721 265.21 19.1671C265.21 17.1621 266.853 15.5212 268.861 15.5212C270.869 15.5212 272.512 17.1621 272.512 19.1671C272.512 21.1721 270.869 22.813 268.861 22.813Z" fill="white"/>
<path d="M227.952 30.3859C227.412 30.3859 226.948 30.1928 226.562 29.8067C226.175 29.4205 225.982 28.9579 225.982 28.4188C225.982 27.8796 226.175 27.417 226.562 27.0309C226.948 26.6447 227.412 26.4516 227.952 26.4516C228.492 26.4516 228.955 26.6447 229.342 27.0309C229.728 27.417 229.922 27.8796 229.922 28.4188C229.922 28.7758 229.83 29.1036 229.648 29.4023C229.473 29.701 229.236 29.9415 228.937 30.1236C228.645 30.2984 228.316 30.3859 227.952 30.3859Z" fill="white"/>
<path d="M304 4.06484C304 6.36908 302.187 8.17955 299.829 8.17955C297.497 8.17955 295.634 6.36908 295.634 4.06484C295.634 1.81047 297.497 0 299.829 0C302.192 0 304 1.81047 304 4.06484ZM296.682 4.06484C296.682 5.87531 298.021 7.31172 299.859 7.31172C301.647 7.31172 302.961 5.87531 302.961 4.08977C302.961 2.2793 301.647 0.817955 299.834 0.817955C298.021 0.817955 296.682 2.2793 296.682 4.06484ZM299.185 6.19451H298.241V2.12967C298.611 2.05486 299.135 2.00499 299.804 2.00499C300.573 2.00499 300.923 2.12967 301.218 2.30424C301.443 2.4788 301.617 2.798 301.617 3.19701C301.617 3.6409 301.268 3.99002 300.773 4.13965V4.18953C301.173 4.33915 301.393 4.63342 301.518 5.18204C301.642 5.8005 301.717 6.04988 301.817 6.1995H300.798C300.673 6.04988 300.598 5.6808 300.474 5.20698C300.399 4.76309 300.149 4.56359 299.629 4.56359H299.185V6.19451ZM299.21 3.89027H299.654C300.174 3.89027 300.598 3.71571 300.598 3.29676C300.598 2.92269 300.324 2.6783 299.729 2.6783C299.48 2.6783 299.31 2.70324 299.21 2.72818V3.89027Z" fill="white"/>
</svg>
